inDegrees=no
num_controls=7
num_derivatives=13
num_iterations=77
num_multipliers=7
num_parameters=0
num_slacks=7
num_states=26
objective=0.329969
objective_accelerations=0.044331
objective_balance=0.001461
objective_effort=0.032186
objective_height=0.250810
objective_ligament=0.001181
solver_duration=787.862603
status=Solve_Succeeded
success=true
DataType=double
version=3
OpenSimVersion=4.5
endheader
time	/jointset/ground_pelvis/pelvis_tilt/value	/jointset/ground_pelvis/pelvis_tx/value	/jointset/ground_pelvis/pelvis_ty/value	/jointset/hip_r/hip_flexion_r/value	/jointset/hip_r/hip_adduction_r/value	/jointset/hip_r/hip_rotation_r/value	/jointset/back/lumbar_extension/value	/jointset/patellofemoral_r/patellar_flexion_r/value	/jointset/knee_r/knee_flexion_r/value	/jointset/knee_r/knee_adduction_r/value	/jointset/knee_r/knee_rotation_r/value	/jointset/ankle_r/ankle_angle_r/value	/jointset/subtalar_r/subtalar_angle_r/value	/jointset/ground_pelvis/pelvis_tilt/speed	/jointset/ground_pelvis/pelvis_tx/speed	/jointset/ground_pelvis/pelvis_ty/speed	/jointset/hip_r/hip_flexion_r/speed	/jointset/hip_r/hip_adduction_r/speed	/jointset/hip_r/hip_rotation_r/speed	/jointset/back/lumbar_extension/speed	/jointset/patellofemoral_r/patellar_flexion_r/speed	/jointset/knee_r/knee_flexion_r/speed	/jointset/knee_r/knee_adduction_r/speed	/jointset/knee_r/knee_rotation_r/speed	/jointset/ankle_r/ankle_angle_r/speed	/jointset/subtalar_r/subtalar_angle_r/speed	/forceset/tau_hip_flexion_r	/forceset/tau_hip_adduction_r	/forceset/tau_hip_rotation_r	/forceset/tau_knee_flexion_r	/forceset/tau_ankle_angle_r	/forceset/tau_subtalar_angle_r	/forceset/tau_lumbar_extension	lambda_cid13_p0	lambda_cid14_p0	lambda_cid14_p1	lambda_cid14_p2	lambda_cid14_p3	lambda_cid14_p4	lambda_cid14_p5	/jointset/ground_pelvis/pelvis_tilt/accel	/jointset/ground_pelvis/pelvis_tx/accel	/jointset/ground_pelvis/pelvis_ty/accel	/jointset/hip_r/hip_flexion_r/accel	/jointset/hip_r/hip_adduction_r/accel	/jointset/hip_r/hip_rotation_r/accel	/jointset/back/lumbar_extension/accel	/jointset/patellofemoral_r/patellar_flexion_r/accel	/jointset/knee_r/knee_flexion_r/accel	/jointset/knee_r/knee_adduction_r/accel	/jointset/knee_r/knee_rotation_r/accel	/jointset/ankle_r/ankle_angle_r/accel	/jointset/subtalar_r/subtalar_angle_r/accel	gamma_cid13_p0	gamma_cid14_p0	gamma_cid14_p1	gamma_cid14_p2	gamma_cid14_p3	gamma_cid14_p4	gamma_cid14_p5
1.5	-0.1589284750521203	0.01947814596186003	0.7814519658035883	0.9808926837435588	-0.2441283454434948	-0.05424995628973098	-0.6430232877495452	1.056795580670157	1.056795580670134	0.01548303004797001	0.1744453099009786	0.3196810553121753	0.1138648331755161	0.6362347249324382	0.2468376967822698	0.6494983161362948	-2.467694903834967	0.003724452734987674	-0.4056609651668807	0.7898960972146162	-2.254033958394038	-2.254033958394033	0.328205685945032	0.000378512875430271	-0.5329713009484381	-0.186555727283778	-0.203928313426626	0.01011863902626546	0.03080370812077072	-0.3015020926626898	0.001907313932209893	-0.01122657563743623	0.2398385429533152	-3.712483942448833	-41.50164724443043	-11.88411014582447	2.021625609554853	-3.656610674827647	-624.3789003161845	54.4739241402409	0.3707083439915702	0.7248522871620502	-0.6286188418658037	-1.221164038554334	0.003822188268826152	-0.3584519554275066	2.087815359310832	-1.631178240506758	-1.631178240506763	0.5547921939192658	-0.07123158634103471	-0.9092599484323549	-0.1395763436018472	1.25880112576309e-08	-1.954540692654817e-07	-4.096760809021664e-06	-2.167937263170498e-06	5.840443822469584e-07	1.216969013473364e-07	-3.011639406140592e-06
1.51	-0.1525479096113184	0.02198255218762557	0.7879142536000592	0.9561567316934899	-0.2440914236734386	-0.05832984656849827	-0.6350217347243979	1.034175996763684	1.034175996763666	0.01878917144593372	0.1744495091896707	0.3143066209248654	0.1119919629600805	0.6397794446935703	0.2540158264133814	0.6428207955524017	-2.479184141503623	0.003662379279591205	-0.4103182379524793	0.8103114249618705	-2.269582645050433	-2.269582645050431	0.332992136158368	0.0004636729755068246	-0.541818745295135	-0.1879702308486934	-0.1952308037889959	0.008413362337415577	0.03074155694506515	-0.2967243517931928	0.003608574256391109	-0.01164386865583212	0.2320826006844875	-4.538938041391857	-40.56732406673805	-11.75974447217763	1.839595506340748	-3.739146535431422	-618.1225296981113	54.37822488904312	0.3314923663284301	0.710258588515974	-0.7080625556355699	-1.066128985805734	-0.01143495431238104	-0.5194662529425652	2.00292905442023	-1.471690268772614	-1.47169026877305	0.43543287257286	0.04812735096342941	-0.8578124318929833	-0.1361462210011296	1.440437776160109e-08	-2.061435267733859e-07	-4.28071713374806e-06	-2.307915017772413e-06	6.063919622265747e-07	1.181079033386919e-07	-3.048541005171224e-06
1.52	-0.1461348692580723	0.02455793276718802	0.7943056174128942	0.9313152221957791	-0.2440551652063101	-0.06245632983768409	-0.62681912090738	1.011409930712532	1.011409930712522	0.02214214963354838	0.1744545075879123	0.3088466469432674	0.1101061959373827	0.6427297074208804	0.2610325675416491	0.6353135194091521	-2.488806393363666	0.00359179214945415	-0.4149795632507358	0.8301082555886351	-2.283330387329497	-2.283330387329497	0.3375730438729865	0.0005383347868394297	-0.5500792198060149	-0.1891350887361968	-0.1865332941513639	0.006708085648567742	0.03067940576930498	-0.2919466109236966	0.005309834580575173	-0.01206116167422256	0.2243266584156618	-5.45044242256157	-39.62805426418169	-11.62864849953717	1.649796998429004	-3.832813655601464	-611.7888617955291	54.28660545335739	0.2518169372270829	0.692574586593333	-0.794569953737067	-0.8477668768315433	0.002119453320717367	-0.3592624579590724	1.964115935212879	-1.270989365040471	-1.270989365040471	0.5136836941757515	-0.07333124408984969	-0.7918659812689066	-0.08964720811940059	1.743159794247516e-08	-2.159107974350052e-07	-4.445045549708686e-06	-2.433470756391347e-06	6.261757237733609e-07	1.12359650570805e-07	-3.058440907716378e-06
1.53	-0.1396953557374412	0.02720259961115136	0.8006178386997338	0.9063868833184368	-0.2440196156232936	-0.0666294968496146	-0.6184217198664258	0.9885154689685099	0.9885154689685043	0.0255399912963173	0.1744603780905138	0.3033070598943883	0.1082100884305994	0.6450649780208769	0.2678651959054322	0.6269992838342091	-2.49653586344586	0.003514522035095165	-0.4196182268297133	0.8492627359704483	-2.29524781504037	-2.295247815040363	0.3420053287556567	0.0006304810865266005	-0.5577369063969699	-0.1900503353201786	-0.1778765862980747	0.004880293159143598	0.03044930982188074	-0.2874583013907985	0.007012000811062805	-0.01248521428254001	0.2165877225550191	-6.446382600765215	-38.71513550645069	-11.50002920054581	1.454596095386313	-3.882264216432778	-605.8275703002175	54.23061632263722	0.2081539429324801	0.6733966332754396	-0.8695484757082411	-0.6867419931497036	-0.01384998045744167	-0.5107685061269294	1.874731594846444	-1.105002319962975	-1.105002319962033	0.4088724467617211	0.04904641652609369	-0.7373674721253769	-0.08809552693716809	2.174535015505958e-08	-2.246982445724467e-07	-4.588519312605682e-06	-2.543703103028363e-06	6.432354282352651e-07	1.043171896212232e-07	-3.039651507745711e-06
